<svg width="159" height="56" viewBox="0 0 159 56" fill="none" xmlns="http://www.w3.org/2000/svg">
<path d="M126.101 5.02844H119.279V11.8496H126.101V5.02844Z" fill="white"/>
<path d="M119.279 11.8496H112.464V18.6645H105.643V25.4857H112.464H119.279V18.6645V11.8496Z" fill="white"/>
<path d="M126.101 25.4857H119.279V32.3069H126.101V25.4857Z" fill="white"/>
<path d="M105.643 25.4857H98.8223V32.3069H105.643V25.4857Z" fill="white"/>
<path d="M105.643 5.02844H98.8223V11.8496H105.643V5.02844Z" fill="white"/>
<path d="M18.2473 11.0423V32.2942H11.5087V11.0423H3.39062V5.01575H26.0639L26.0983 11.0423H18.2473Z" fill="white"/>
<path d="M50.3729 21.5252L56.7364 32.3069H48.9362L44.3146 22.7712H40.1125V32.3069H33.4121V5.01575H44.3082C51.6825 5.01575 55.3696 7.77474 55.3696 13.814C55.3696 17.7872 53.5833 20.578 50.3729 21.5252ZM44.3527 10.3049H40.1125V18.0097H44.232C47.2071 18.0097 48.3959 17.1388 48.3959 14.081C48.3959 11.214 47.2834 10.3049 44.3527 10.3049Z" fill="white"/>
<path d="M82.8904 26.9924H72.1087L70.4431 32.3069H63.3867L73.6535 5.02209H81.619L92.0065 32.3069H84.5496L82.8904 26.9924ZM76.7049 12.5108L73.7298 21.8621H81.3011L78.4468 12.5108L77.6521 9.63738H77.5313L76.7049 12.5108Z" fill="white"/>
<path d="M132.959 5.02209H139.774V32.3069H132.959V5.02209Z" fill="white"/>
<path d="M149.481 11.1948C148.458 11.1948 148 10.718 148 9.56739C148 8.41675 148.464 7.92725 149.488 7.92725C150.517 7.92725 150.969 8.4231 150.969 9.56739C150.969 10.7117 150.517 11.1948 149.481 11.1948ZM149.481 10.4256C149.818 10.4256 149.939 10.2603 149.939 9.56739C149.939 8.86174 149.818 8.70917 149.481 8.70917C149.138 8.70917 149.017 8.86174 149.017 9.56739C149.024 10.2667 149.144 10.4256 149.481 10.4256Z" fill="white"/>
<path d="M153.13 11.1249V9.16688C153.13 8.88081 153.002 8.76638 152.748 8.76638C152.583 8.76638 152.424 8.83631 152.335 8.94438V11.1249H151.35V8.00352L152.055 7.96538L152.195 8.21331C152.424 8.02895 152.716 7.93359 153.028 7.93359C153.689 7.93359 154.115 8.37224 154.115 9.16688V11.1249H153.13Z" fill="white"/>
<path d="M151.059 14.1001C148.554 14.1001 146.52 12.0658 146.52 9.56109C146.52 7.05638 148.554 5.02209 151.059 5.02209C153.563 5.02209 155.598 7.05638 155.598 9.56109C155.598 12.0658 153.563 14.1001 151.059 14.1001ZM151.059 5.68959C148.923 5.68959 147.187 7.42509 147.187 9.56109C147.187 11.6971 148.923 13.4326 151.059 13.4326C153.195 13.4326 154.93 11.6971 154.93 9.56109C154.93 7.42509 153.188 5.68959 151.059 5.68959Z" fill="white"/>
<path d="M115.827 46.5406L115.445 45.7268H115.413L115.038 46.5469L114.174 48.3206H112.279L114.282 44.9322L112.311 41.6074H114.307L115.146 43.3048L115.528 44.1121H115.56L115.922 43.3048L116.755 41.6074H118.662L116.78 44.8877L118.719 48.3206H116.723L115.827 46.5406Z" fill="white"/>
<path d="M75.1343 42.5482C74.4351 42.5482 73.8566 42.8343 73.5133 43.3365V46.763C73.7803 47.1953 74.3333 47.5703 75.1407 47.5703C76.1706 47.5703 76.8571 47.0745 76.8571 45.0211C76.8635 43.0123 76.2214 42.5482 75.1343 42.5482ZM75.2869 48.4413C74.4668 48.4413 73.7803 48.1298 73.3671 47.6212L73.3353 47.6339L73.17 48.3205H72.4707V39.6748L73.5133 39.6049V41.4357L73.5006 42.3194L73.5196 42.3321C73.9964 41.8299 74.6703 41.5883 75.4013 41.5883C76.9398 41.5883 77.9188 42.4846 77.9188 44.9894C77.9251 47.4813 76.9652 48.4413 75.2869 48.4413Z" fill="white"/>
<path d="M82.8451 48.4349L82.8769 48.3205L79.9844 41.7155H81.2049L83.0867 46.5151L83.3982 47.3479H83.4299L83.6715 46.496L85.1909 41.7218H86.3224L83.894 48.4604C83.4299 49.6682 82.7879 50.1005 81.8661 50.1005C81.5037 50.1005 81.135 50.0242 80.8489 49.8907L80.9507 49.1024C81.2049 49.2232 81.4465 49.2804 81.6944 49.2804C82.203 49.2741 82.559 49.077 82.8451 48.4349Z" fill="white"/>
<path d="M95.0134 42.8916V46.3308C95.0134 46.8521 95.2804 47.0746 95.8144 47.0746C95.9924 47.0746 96.2213 47.0428 96.3484 46.9983L96.4502 48.2506C96.2149 48.3523 95.7763 48.4413 95.2995 48.4413C93.9582 48.4413 93.3034 47.6658 93.3034 46.388V42.8979H92.5469V41.6138H93.3797L93.6657 40.0944L95.0198 39.9736V41.6138H96.5137V42.8979H95.0134V42.8916Z" fill="white"/>
<path d="M98.7832 48.3205V41.6518L100.156 41.5819L100.315 42.7008H100.347C100.767 41.8934 101.421 41.4929 102.184 41.4929C102.483 41.4929 102.737 41.5374 102.915 41.5946L102.801 43.292C102.591 43.2221 102.337 43.1776 102.07 43.1776C101.173 43.1776 100.506 43.8323 100.506 44.9512V48.3205H98.7832Z" fill="white"/>
<path d="M108.376 45.4407C108.211 45.3771 107.88 45.2945 107.423 45.2945C106.66 45.2945 106.304 45.5933 106.304 46.1781C106.304 46.8329 106.691 47.0618 107.257 47.0618C107.842 47.0618 108.376 46.7058 108.376 46.2735V45.4407ZM108.63 47.6784L108.599 47.6657C108.192 48.1552 107.543 48.4286 106.78 48.4286C105.503 48.4286 104.695 47.7102 104.695 46.2036C104.695 44.9639 105.56 44.1057 107.092 44.1057C107.588 44.1057 108.02 44.182 108.376 44.2964V43.915C108.376 43.2411 108.02 42.9297 107.098 42.9297C106.355 42.9297 105.865 43.0441 105.248 43.2984L105.102 41.9252C105.776 41.6392 106.545 41.4802 107.41 41.4802C109.393 41.4802 110.08 42.3321 110.08 44.1756V48.3332H108.764L108.63 47.6784Z" fill="white"/>
<path d="M121.166 48.3205V41.6455L122.927 41.5693V48.3205H121.166ZM122.05 40.889C121.382 40.889 121.064 40.6983 121.064 40.158C121.064 39.6812 121.382 39.4142 122.05 39.4142C122.724 39.4142 123.022 39.6685 123.022 40.158C123.029 40.6411 122.73 40.889 122.05 40.889Z" fill="white"/>
<path d="M130.34 39.4459L129.011 41.0543H127.714L128.369 39.4459H130.34ZM128.611 47.0681C129.551 47.0681 129.895 46.6231 129.895 44.983C129.895 43.3428 129.551 42.8978 128.611 42.8978C127.657 42.8978 127.314 43.3428 127.314 44.983C127.314 46.6358 127.67 47.0681 128.611 47.0681ZM128.611 48.4794C126.481 48.4794 125.527 47.4623 125.527 44.9893C125.527 42.5291 126.481 41.4866 128.611 41.4866C130.753 41.4866 131.681 42.5291 131.681 44.9893C131.681 47.4559 130.753 48.4794 128.611 48.4794Z" fill="white"/>
<path d="M138.02 48.3205V44.0422C138.02 43.2984 137.644 42.9996 136.932 42.9996C136.5 42.9996 136.036 43.1903 135.801 43.5082V48.3205H134.078V41.6392L135.318 41.5629L135.572 42.1414C136.074 41.7091 136.723 41.4739 137.422 41.4739C138.84 41.4739 139.736 42.3702 139.736 44.0422V48.3205H138.02Z" fill="white"/>
</svg>